<?xml version="1.0" encoding="us-ascii" standalone="no"?><svg xmlns="http://www.w3.org/2000/svg" xmlns:xlink="http://www.w3.org/1999/xlink" contentStyleType="text/css" height="2220px" preserveAspectRatio="none" style="width:1197px;height:2220px;background:#FFFFFF;" version="1.1" viewBox="0 0 1197 2220" width="1197px" zoomAndPan="magnify"><defs><filter height="300%" id="f1bcgpkwwf4tdp" width="300%" x="-1" y="-1"><feGaussianBlur result="blurOut" stdDeviation="2.0"/><feColorMatrix in="blurOut" result="blurOut2" type="matrix" values="0 0 0 0 0 0 0 0 0 0 0 0 0 0 0 0 0 0 .4 0"/><feOffset dx="4.0" dy="4.0" in="blurOut2" result="blurOut3"/><feBlend in="SourceGraphic" in2="blurOut3" mode="normal"/></filter></defs><g><text fill="#000000" font-family="sans-serif" font-size="14" font-weight="bold" lengthAdjust="spacing" textLength="399" x="397.5" y="32.9951">CommoditiesLevelTrader_cBot - Activity Diagram</text><ellipse cx="866" cy="57.2969" fill="#000000" filter="url(#f1bcgpkwwf4tdp)" rx="10" ry="10" style="stroke:#000000;stroke-width:1.0;"/><rect fill="#FEFECE" filter="url(#f1bcgpkwwf4tdp)" height="33.9688" rx="12.5" ry="12.5" style="stroke:#A80036;stroke-width:1.5;" width="108" x="812" y="87.2969"/><text fill="#000000" font-family="sans-serif" font-size="12" lengthAdjust="spacing" textLength="88" x="822" y="108.4355">Validate inputs</text><polygon fill="#FEFECE" filter="url(#f1bcgpkwwf4tdp)" points="833,141.2656,899,141.2656,911,153.2656,899,165.2656,833,165.2656,821,153.2656,833,141.2656" style="stroke:#A80036;stroke-width:1.5;"/><text fill="#000000" font-family="sans-serif" font-size="11" lengthAdjust="spacing" textLength="66" x="833" y="157.0737">errors == 0</text><text fill="#000000" font-family="sans-serif" font-size="11" lengthAdjust="spacing" textLength="21" x="800" y="150.6714">yes</text><text fill="#000000" font-family="sans-serif" font-size="11" lengthAdjust="spacing" textLength="14" x="911" y="150.6714">no</text><rect fill="#FEFECE" filter="url(#f1bcgpkwwf4tdp)" height="33.9688" rx="12.5" ry="12.5" style="stroke:#A80036;stroke-width:1.5;" width="188" x="650.25" y="175.2656"/><text fill="#000000" font-family="sans-serif" font-size="12" lengthAdjust="spacing" textLength="168" x="660.25" y="196.4043">Print "Validation successfull"</text><rect fill="#FEFECE" filter="url(#f1bcgpkwwf4tdp)" height="33.9688" rx="12.5" ry="12.5" style="stroke:#A80036;stroke-width:1.5;" width="259" x="858.25" y="175.2656"/><text fill="#000000" font-family="sans-serif" font-size="12" lengthAdjust="spacing" textLength="239" x="868.25" y="196.4043">Print "Validation input parameter errors"</text><ellipse cx="987.75" cy="240.2344" fill="#FFFFFF" filter="url(#f1bcgpkwwf4tdp)" rx="11" ry="11" style="stroke:#000000;stroke-width:1.0;"/><ellipse cx="987.75" cy="240.2344" fill="#000000" rx="6" ry="6" style="stroke:#7F7F7F;stroke-width:1.0;"/><path d="M423,275.6523 L423,300.7852 A0,0 0 0 0 423,300.7852 L757,300.7852 A0,0 0 0 0 757,300.7852 L757,293.6523 L777,288.2188 L757,285.6523 L757,285.6523 L747,275.6523 L423,275.6523 A0,0 0 0 0 423,275.6523 " fill="#FBFB77" filter="url(#f1bcgpkwwf4tdp)" style="stroke:#A80036;stroke-width:1.0;"/><path d="M747,275.6523 L747,285.6523 L757,285.6523 L747,275.6523 " fill="#FBFB77" style="stroke:#A80036;stroke-width:1.0;"/><text fill="#000000" font-family="sans-serif" font-size="13" lengthAdjust="spacing" textLength="313" x="429" y="292.7192">Compute ProfitTarget, beforeEntryPrice, Amount</text><rect fill="#FEFECE" filter="url(#f1bcgpkwwf4tdp)" height="33.9688" rx="12.5" ry="12.5" style="stroke:#A80036;stroke-width:1.5;" width="178" x="777" y="271.2344"/><text fill="#000000" font-family="sans-serif" font-size="12" lengthAdjust="spacing" textLength="158" x="787" y="292.373">Compute trade properties</text><rect fill="#FEFECE" filter="url(#f1bcgpkwwf4tdp)" height="33.9688" rx="12.5" ry="12.5" style="stroke:#A80036;stroke-width:1.5;" width="237" x="747.5" y="325.2031"/><text fill="#000000" font-family="sans-serif" font-size="12" lengthAdjust="spacing" textLength="217" x="757.5" y="346.3418">Validate computed trade properties</text><polygon fill="#FEFECE" filter="url(#f1bcgpkwwf4tdp)" points="833,379.1719,899,379.1719,911,391.1719,899,403.1719,833,403.1719,821,391.1719,833,379.1719" style="stroke:#A80036;stroke-width:1.5;"/><text fill="#000000" font-family="sans-serif" font-size="11" lengthAdjust="spacing" textLength="66" x="833" y="394.98">errors == 0</text><text fill="#000000" font-family="sans-serif" font-size="11" lengthAdjust="spacing" textLength="21" x="800" y="388.5776">yes</text><text fill="#000000" font-family="sans-serif" font-size="11" lengthAdjust="spacing" textLength="14" x="911" y="388.5776">no</text><rect fill="#FEFECE" filter="url(#f1bcgpkwwf4tdp)" height="33.9688" rx="12.5" ry="12.5" style="stroke:#A80036;stroke-width:1.5;" width="188" x="650.25" y="413.1719"/><text fill="#000000" font-family="sans-serif" font-size="12" lengthAdjust="spacing" textLength="168" x="660.25" y="434.3105">Print "Validation successfull"</text><rect fill="#FEFECE" filter="url(#f1bcgpkwwf4tdp)" height="33.9688" rx="12.5" ry="12.5" style="stroke:#A80036;stroke-width:1.5;" width="259" x="858.25" y="413.1719"/><text fill="#000000" font-family="sans-serif" font-size="12" lengthAdjust="spacing" textLength="239" x="868.25" y="434.3105">Print "Validation input parameter errors"</text><ellipse cx="987.75" cy="478.1406" fill="#FFFFFF" filter="url(#f1bcgpkwwf4tdp)" rx="11" ry="11" style="stroke:#000000;stroke-width:1.0;"/><ellipse cx="987.75" cy="478.1406" fill="#000000" rx="6" ry="6" style="stroke:#7F7F7F;stroke-width:1.0;"/><path d="M401,543.1406 L401,568.2734 L798,568.2734 L798,553.1406 L788,543.1406 L401,543.1406 " fill="#FBFB77" filter="url(#f1bcgpkwwf4tdp)" style="stroke:#A80036;stroke-width:1.0;"/><path d="M788,543.1406 L788,553.1406 L798,553.1406 L788,543.1406 " fill="#FBFB77" style="stroke:#A80036;stroke-width:1.0;"/><text fill="#000000" font-family="sans-serif" font-size="13" lengthAdjust="spacing" textLength="376" x="407" y="560.2075">ExpirationDate != null &amp;&amp; DateTime.Now &gt; ExpirationDate</text><polygon fill="#FEFECE" filter="url(#f1bcgpkwwf4tdp)" points="810,568.2734,922,568.2734,934,580.2734,922,592.2734,810,592.2734,798,580.2734,810,568.2734" style="stroke:#A80036;stroke-width:1.5;"/><text fill="#000000" font-family="sans-serif" font-size="11" lengthAdjust="spacing" textLength="112" x="810" y="584.0815">Was order expired?</text><text fill="#000000" font-family="sans-serif" font-size="11" lengthAdjust="spacing" textLength="21" x="777" y="577.6792">yes</text><text fill="#000000" font-family="sans-serif" font-size="11" lengthAdjust="spacing" textLength="14" x="934" y="577.6792">no</text><rect fill="#FEFECE" filter="url(#f1bcgpkwwf4tdp)" height="33.9688" rx="12.5" ry="12.5" style="stroke:#A80036;stroke-width:1.5;" width="276" x="613.75" y="602.2734"/><text fill="#000000" font-family="sans-serif" font-size="12" lengthAdjust="spacing" textLength="256" x="623.75" y="623.4121">Print "Time of trade expired, bot will stop."</text><ellipse cx="751.75" cy="667.2422" fill="#FFFFFF" filter="url(#f1bcgpkwwf4tdp)" rx="11" ry="11" style="stroke:#000000;stroke-width:1.0;"/><ellipse cx="751.75" cy="667.2422" fill="#000000" rx="6" ry="6" style="stroke:#7F7F7F;stroke-width:1.0;"/><rect fill="#FEFECE" filter="url(#f1bcgpkwwf4tdp)" height="33.9688" rx="12.5" ry="12.5" style="stroke:#A80036;stroke-width:1.5;" width="141" x="909.75" y="602.2734"/><text fill="#000000" font-family="sans-serif" font-size="12" lengthAdjust="spacing" textLength="121" x="919.75" y="623.4121">Print "Order is valid"</text><path d="M417.5,688.2422 L417.5,713.375 L785.5,713.375 L785.5,698.2422 L775.5,688.2422 L417.5,688.2422 " fill="#FBFB77" filter="url(#f1bcgpkwwf4tdp)" style="stroke:#A80036;stroke-width:1.0;"/><path d="M775.5,688.2422 L775.5,698.2422 L785.5,698.2422 L775.5,688.2422 " fill="#FBFB77" style="stroke:#A80036;stroke-width:1.0;"/><text fill="#000000" font-family="sans-serif" font-size="13" lengthAdjust="spacing" textLength="347" x="423.5" y="705.3091">!ReachProfitTarget &amp;&amp; WasReachProfitTarget(lastBar)</text><rect fill="#FEFECE" filter="url(#f1bcgpkwwf4tdp)" height="33.9688" rx="12.5" ry="12.5" style="stroke:#A80036;stroke-width:1.5;" width="231" x="750.5" y="761.7773"/><text fill="#000000" font-family="sans-serif" font-size="12" lengthAdjust="spacing" textLength="211" x="760.5" y="782.916">Print "Price reach ProfitTargetPrice."</text><rect fill="#FEFECE" filter="url(#f1bcgpkwwf4tdp)" height="33.9688" rx="12.5" ry="12.5" style="stroke:#A80036;stroke-width:1.5;" width="245" x="743.5" y="815.7461"/><text fill="#000000" font-family="sans-serif" font-size="12" lengthAdjust="spacing" textLength="225" x="753.5" y="836.8848">Set variable ReachProfitTarget to true</text><rect fill="#FEFECE" filter="url(#f1bcgpkwwf4tdp)" height="33.9688" rx="12.5" ry="12.5" style="stroke:#A80036;stroke-width:1.5;" width="313" x="709.5" y="869.7148"/><text fill="#000000" font-family="sans-serif" font-size="12" lengthAdjust="spacing" textLength="293" x="719.5" y="890.8535">Set variable ReachProfitTargetTimestamp to Now</text><polygon fill="#FEFECE" filter="url(#f1bcgpkwwf4tdp)" points="797.5,713.375,934.5,713.375,946.5,725.375,934.5,737.375,797.5,737.375,785.5,725.375,797.5,713.375" style="stroke:#A80036;stroke-width:1.5;"/><text fill="#000000" font-family="sans-serif" font-size="11" lengthAdjust="spacing" textLength="21" x="870" y="747.5854">yes</text><text fill="#000000" font-family="sans-serif" font-size="11" lengthAdjust="spacing" textLength="137" x="797.5" y="729.1831">Was reach profit target?</text><text fill="#000000" font-family="sans-serif" font-size="11" lengthAdjust="spacing" textLength="14" x="946.5" y="722.7808">no</text><polygon fill="#FEFECE" filter="url(#f1bcgpkwwf4tdp)" points="866,923.6836,878,935.6836,866,947.6836,854,935.6836,866,923.6836" style="stroke:#A80036;stroke-width:1.5;"/><path d="M193,957.6836 L193,982.8164 L767,982.8164 L767,967.6836 L757,957.6836 L193,957.6836 " fill="#FBFB77" filter="url(#f1bcgpkwwf4tdp)" style="stroke:#A80036;stroke-width:1.0;"/><path d="M757,957.6836 L757,967.6836 L767,967.6836 L757,957.6836 " fill="#FBFB77" style="stroke:#A80036;stroke-width:1.0;"/><text fill="#000000" font-family="sans-serif" font-size="13" lengthAdjust="spacing" textLength="553" x="199" y="974.7505">ReachProfitTarget &amp;&amp; !ReachBeforeEntryPrice &amp;&amp; WasReachBeforeEntryPrice(lastBar)</text><rect fill="#FEFECE" filter="url(#f1bcgpkwwf4tdp)" height="33.9688" rx="12.5" ry="12.5" style="stroke:#A80036;stroke-width:1.5;" width="233" x="749.5" y="1031.2188"/><text fill="#000000" font-family="sans-serif" font-size="12" lengthAdjust="spacing" textLength="213" x="759.5" y="1052.3574">Print "Price reach beforeEntryPrice."</text><rect fill="#FEFECE" filter="url(#f1bcgpkwwf4tdp)" height="33.9688" rx="12.5" ry="12.5" style="stroke:#A80036;stroke-width:1.5;" width="276" x="728" y="1085.1875"/><text fill="#000000" font-family="sans-serif" font-size="12" lengthAdjust="spacing" textLength="256" x="738" y="1106.3262">Set variable ReachBeforeEntryPrice to true</text><rect fill="#FEFECE" filter="url(#f1bcgpkwwf4tdp)" height="33.9688" rx="12.5" ry="12.5" style="stroke:#A80036;stroke-width:1.5;" width="343" x="694.5" y="1139.1563"/><text fill="#000000" font-family="sans-serif" font-size="12" lengthAdjust="spacing" textLength="323" x="704.5" y="1160.2949">Set variable ReachBeforeEntryPriceTimestamp to now</text><rect fill="#FEFECE" filter="url(#f1bcgpkwwf4tdp)" height="33.9688" rx="12.5" ry="12.5" style="stroke:#A80036;stroke-width:1.5;" width="518" x="607" y="1241.5273"/><text fill="#000000" font-family="sans-serif" font-size="12" lengthAdjust="spacing" textLength="498" x="617" y="1262.666">Print "On exchange is open max allowed trades, order do not place on exchange."</text><ellipse cx="866" cy="1315.0117" fill="#FFFFFF" filter="url(#f1bcgpkwwf4tdp)" rx="11" ry="11" style="stroke:#000000;stroke-width:1.0;"/><ellipse cx="866" cy="1315.0117" fill="#000000" rx="6" ry="6" style="stroke:#7F7F7F;stroke-width:1.0;"/><polygon fill="#FEFECE" filter="url(#f1bcgpkwwf4tdp)" points="728.5,1193.125,1003.5,1193.125,1015.5,1205.125,1003.5,1217.125,728.5,1217.125,716.5,1205.125,728.5,1193.125" style="stroke:#A80036;stroke-width:1.5;"/><text fill="#000000" font-family="sans-serif" font-size="11" lengthAdjust="spacing" textLength="21" x="870" y="1227.3354">yes</text><text fill="#000000" font-family="sans-serif" font-size="11" lengthAdjust="spacing" textLength="275" x="728.5" y="1208.9331">CountOpenTrades() &gt;= MaxAllowedOpenTrades</text><text fill="#000000" font-family="sans-serif" font-size="11" lengthAdjust="spacing" textLength="14" x="1015.5" y="1202.5308">no</text><path d="M10,1366.4141 L10,1391.5469 L779,1391.5469 L779,1376.4141 L769,1366.4141 L10,1366.4141 " fill="#FBFB77" filter="url(#f1bcgpkwwf4tdp)" style="stroke:#A80036;stroke-width:1.0;"/><path d="M769,1366.4141 L769,1376.4141 L779,1376.4141 L769,1366.4141 " fill="#FBFB77" style="stroke:#A80036;stroke-width:1.0;"/><text fill="#000000" font-family="sans-serif" font-size="13" lengthAdjust="spacing" textLength="748" x="16" y="1383.481">ReachBeforeEntryPriceTimestamp.Subtract(ReachProfitTargetTimestamp).TotalMinutes &lt; PlaceTradeDelayInMinutes</text><rect fill="#FEFECE" filter="url(#f1bcgpkwwf4tdp)" height="33.9688" rx="12.5" ry="12.5" style="stroke:#A80036;stroke-width:1.5;" width="438" x="647" y="1439.9492"/><text fill="#000000" font-family="sans-serif" font-size="12" lengthAdjust="spacing" textLength="418" x="657" y="1461.0879">Print "Most fast movement to level, order do not place on exchange."</text><ellipse cx="866" cy="1513.4336" fill="#FFFFFF" filter="url(#f1bcgpkwwf4tdp)" rx="11" ry="11" style="stroke:#000000;stroke-width:1.0;"/><ellipse cx="866" cy="1513.4336" fill="#000000" rx="6" ry="6" style="stroke:#7F7F7F;stroke-width:1.0;"/><polygon fill="#FEFECE" filter="url(#f1bcgpkwwf4tdp)" points="791,1391.5469,941,1391.5469,953,1403.5469,941,1415.5469,791,1415.5469,779,1403.5469,791,1391.5469" style="stroke:#A80036;stroke-width:1.5;"/><text fill="#000000" font-family="sans-serif" font-size="11" lengthAdjust="spacing" textLength="21" x="870" y="1425.7573">yes</text><text fill="#000000" font-family="sans-serif" font-size="11" lengthAdjust="spacing" textLength="150" x="791" y="1407.355">Time delay less then limit</text><text fill="#000000" font-family="sans-serif" font-size="11" lengthAdjust="spacing" textLength="14" x="953" y="1400.9526">no</text><rect fill="#FEFECE" filter="url(#f1bcgpkwwf4tdp)" height="33.9688" rx="12.5" ry="12.5" style="stroke:#A80036;stroke-width:1.5;" width="202" x="765" y="1566.4336"/><text fill="#000000" font-family="sans-serif" font-size="12" lengthAdjust="spacing" textLength="182" x="775" y="1587.5723">Place Limit order on exchange</text><polygon fill="#FEFECE" filter="url(#f1bcgpkwwf4tdp)" points="779,982.8164,953,982.8164,965,994.8164,953,1006.8164,779,1006.8164,767,994.8164,779,982.8164" style="stroke:#A80036;stroke-width:1.5;"/><text fill="#000000" font-family="sans-serif" font-size="11" lengthAdjust="spacing" textLength="21" x="870" y="1017.0269">yes</text><text fill="#000000" font-family="sans-serif" font-size="11" lengthAdjust="spacing" textLength="174" x="779" y="998.6245">Was reach before entry price?</text><text fill="#000000" font-family="sans-serif" font-size="11" lengthAdjust="spacing" textLength="14" x="965" y="992.2222">no</text><polygon fill="#FEFECE" filter="url(#f1bcgpkwwf4tdp)" points="866,1620.4023,878,1632.4023,866,1644.4023,854,1632.4023,866,1620.4023" style="stroke:#A80036;stroke-width:1.5;"/><path d="M183,1654.4023 L183,1679.5352 L716,1679.5352 L716,1664.4023 L706,1654.4023 L183,1654.4023 " fill="#FBFB77" filter="url(#f1bcgpkwwf4tdp)" style="stroke:#A80036;stroke-width:1.0;"/><path d="M706,1654.4023 L706,1664.4023 L716,1664.4023 L706,1654.4023 " fill="#FBFB77" style="stroke:#A80036;stroke-width:1.0;"/><text fill="#000000" font-family="sans-serif" font-size="13" lengthAdjust="spacing" textLength="512" x="189" y="1671.4692">ReachBeforeEntryPrice &amp;&amp; WasReachProfitTargetAfterBeforeEntryPrice(lastBar)</text><rect fill="#FEFECE" filter="url(#f1bcgpkwwf4tdp)" height="33.9688" rx="12.5" ry="12.5" style="stroke:#A80036;stroke-width:1.5;" width="359" x="686.5" y="1727.9375"/><text fill="#000000" font-family="sans-serif" font-size="12" lengthAdjust="spacing" textLength="339" x="696.5" y="1749.0762">Print "Price reach profit target after hit beforeEntryPrice."</text><rect fill="#FEFECE" filter="url(#f1bcgpkwwf4tdp)" height="33.9688" rx="12.5" ry="12.5" style="stroke:#A80036;stroke-width:1.5;" width="237" x="747.5" y="1781.9063"/><text fill="#000000" font-family="sans-serif" font-size="12" lengthAdjust="spacing" textLength="217" x="757.5" y="1803.0449">Print "Cancel pending order if exist."</text><rect fill="#FEFECE" filter="url(#f1bcgpkwwf4tdp)" height="33.9688" rx="12.5" ry="12.5" style="stroke:#A80036;stroke-width:1.5;" width="123" x="804.5" y="1844.3906"/><text fill="#000000" font-family="sans-serif" font-size="12" lengthAdjust="spacing" textLength="103" x="814.5" y="1865.5293">CancelLimitOrder</text><ellipse cx="866" cy="1909.3594" fill="#FFFFFF" filter="url(#f1bcgpkwwf4tdp)" rx="11" ry="11" style="stroke:#000000;stroke-width:1.0;"/><ellipse cx="866" cy="1909.3594" fill="#000000" rx="6" ry="6" style="stroke:#7F7F7F;stroke-width:1.0;"/><polygon fill="#FEFECE" filter="url(#f1bcgpkwwf4tdp)" points="728,1679.5352,1004,1679.5352,1016,1691.5352,1004,1703.5352,728,1703.5352,716,1691.5352,728,1679.5352" style="stroke:#A80036;stroke-width:1.5;"/><text fill="#000000" font-family="sans-serif" font-size="11" lengthAdjust="spacing" textLength="21" x="870" y="1713.7456">yes</text><text fill="#000000" font-family="sans-serif" font-size="11" lengthAdjust="spacing" textLength="276" x="728" y="1695.3433">Was reach profit target after before entry price?</text><text fill="#000000" font-family="sans-serif" font-size="11" lengthAdjust="spacing" textLength="14" x="1016" y="1688.9409">no</text><rect fill="#FEFECE" filter="url(#f1bcgpkwwf4tdp)" height="33.9688" rx="12.5" ry="12.5" style="stroke:#A80036;stroke-width:1.5;" width="226" x="753" y="2010.7617"/><text fill="#000000" font-family="sans-serif" font-size="12" lengthAdjust="spacing" textLength="206" x="763" y="2031.9004">Print "Pending order was activate."</text><ellipse cx="866" cy="2084.2461" fill="#FFFFFF" filter="url(#f1bcgpkwwf4tdp)" rx="11" ry="11" style="stroke:#000000;stroke-width:1.0;"/><ellipse cx="866" cy="2084.2461" fill="#000000" rx="6" ry="6" style="stroke:#7F7F7F;stroke-width:1.0;"/><polygon fill="#FEFECE" filter="url(#f1bcgpkwwf4tdp)" points="687.5,1962.3594,1044.5,1962.3594,1056.5,1974.3594,1044.5,1986.3594,687.5,1986.3594,675.5,1974.3594,687.5,1962.3594" style="stroke:#A80036;stroke-width:1.5;"/><text fill="#000000" font-family="sans-serif" font-size="11" lengthAdjust="spacing" textLength="21" x="870" y="1996.5698">yes</text><text fill="#000000" font-family="sans-serif" font-size="11" lengthAdjust="spacing" textLength="357" x="687.5" y="1978.1675">Was reach before entry price and not pending order is active?</text><text fill="#000000" font-family="sans-serif" font-size="11" lengthAdjust="spacing" textLength="14" x="1056.5" y="1971.7651">no</text><polygon fill="#FEFECE" filter="url(#f1bcgpkwwf4tdp)" points="866,509.1406,878,521.1406,866,533.1406,854,521.1406,866,509.1406" style="stroke:#A80036;stroke-width:1.5;"/><polygon fill="#FEFECE" filter="url(#f1bcgpkwwf4tdp)" points="823,2137.2461,909,2137.2461,921,2149.2461,909,2161.2461,823,2161.2461,811,2149.2461,823,2137.2461" style="stroke:#A80036;stroke-width:1.5;"/><text fill="#000000" font-family="sans-serif" font-size="11" lengthAdjust="spacing" textLength="86" x="823" y="2153.0542">User terminate</text><ellipse cx="866" cy="2192.2461" fill="#FFFFFF" filter="url(#f1bcgpkwwf4tdp)" rx="11" ry="11" style="stroke:#000000;stroke-width:1.0;"/><ellipse cx="866" cy="2192.2461" fill="#000000" rx="6" ry="6" style="stroke:#7F7F7F;stroke-width:1.0;"/><line style="stroke:#A80036;stroke-width:1.5;" x1="866" x2="866" y1="67.2969" y2="87.2969"/><polygon fill="#A80036" points="862,77.2969,866,87.2969,870,77.2969,866,81.2969" style="stroke:#A80036;stroke-width:1.0;"/><line style="stroke:#A80036;stroke-width:1.5;" x1="987.75" x2="987.75" y1="209.2344" y2="229.2344"/><polygon fill="#A80036" points="983.75,219.2344,987.75,229.2344,991.75,219.2344,987.75,223.2344" style="stroke:#A80036;stroke-width:1.0;"/><line style="stroke:#A80036;stroke-width:1.5;" x1="821" x2="744.25" y1="153.2656" y2="153.2656"/><line style="stroke:#A80036;stroke-width:1.5;" x1="744.25" x2="744.25" y1="153.2656" y2="175.2656"/><polygon fill="#A80036" points="740.25,165.2656,744.25,175.2656,748.25,165.2656,744.25,169.2656" style="stroke:#A80036;stroke-width:1.0;"/><line style="stroke:#A80036;stroke-width:1.5;" x1="911" x2="987.75" y1="153.2656" y2="153.2656"/><line style="stroke:#A80036;stroke-width:1.5;" x1="987.75" x2="987.75" y1="153.2656" y2="175.2656"/><polygon fill="#A80036" points="983.75,165.2656,987.75,175.2656,991.75,165.2656,987.75,169.2656" style="stroke:#A80036;stroke-width:1.0;"/><line style="stroke:#A80036;stroke-width:1.5;" x1="744.25" x2="744.25" y1="209.2344" y2="256.2344"/><line style="stroke:#A80036;stroke-width:1.5;" x1="744.25" x2="866" y1="256.2344" y2="256.2344"/><line style="stroke:#A80036;stroke-width:1.5;" x1="866" x2="866" y1="256.2344" y2="271.2344"/><polygon fill="#A80036" points="862,261.2344,866,271.2344,870,261.2344,866,265.2344" style="stroke:#A80036;stroke-width:1.0;"/><line style="stroke:#A80036;stroke-width:1.5;" x1="866" x2="866" y1="121.2656" y2="141.2656"/><polygon fill="#A80036" points="862,131.2656,866,141.2656,870,131.2656,866,135.2656" style="stroke:#A80036;stroke-width:1.0;"/><line style="stroke:#A80036;stroke-width:1.5;" x1="866" x2="866" y1="305.2031" y2="325.2031"/><polygon fill="#A80036" points="862,315.2031,866,325.2031,870,315.2031,866,319.2031" style="stroke:#A80036;stroke-width:1.0;"/><line style="stroke:#A80036;stroke-width:1.5;" x1="987.75" x2="987.75" y1="447.1406" y2="467.1406"/><polygon fill="#A80036" points="983.75,457.1406,987.75,467.1406,991.75,457.1406,987.75,461.1406" style="stroke:#A80036;stroke-width:1.0;"/><line style="stroke:#A80036;stroke-width:1.5;" x1="821" x2="744.25" y1="391.1719" y2="391.1719"/><line style="stroke:#A80036;stroke-width:1.5;" x1="744.25" x2="744.25" y1="391.1719" y2="413.1719"/><polygon fill="#A80036" points="740.25,403.1719,744.25,413.1719,748.25,403.1719,744.25,407.1719" style="stroke:#A80036;stroke-width:1.0;"/><line style="stroke:#A80036;stroke-width:1.5;" x1="911" x2="987.75" y1="391.1719" y2="391.1719"/><line style="stroke:#A80036;stroke-width:1.5;" x1="987.75" x2="987.75" y1="391.1719" y2="413.1719"/><polygon fill="#A80036" points="983.75,403.1719,987.75,413.1719,991.75,403.1719,987.75,407.1719" style="stroke:#A80036;stroke-width:1.0;"/><line style="stroke:#A80036;stroke-width:1.5;" x1="744.25" x2="744.25" y1="447.1406" y2="494.1406"/><line style="stroke:#A80036;stroke-width:1.5;" x1="744.25" x2="866" y1="494.1406" y2="494.1406"/><line style="stroke:#A80036;stroke-width:1.5;" x1="866" x2="866" y1="494.1406" y2="509.1406"/><polygon fill="#A80036" points="862,499.1406,866,509.1406,870,499.1406,866,503.1406" style="stroke:#A80036;stroke-width:1.0;"/><line style="stroke:#A80036;stroke-width:1.5;" x1="866" x2="866" y1="359.1719" y2="379.1719"/><polygon fill="#A80036" points="862,369.1719,866,379.1719,870,369.1719,866,373.1719" style="stroke:#A80036;stroke-width:1.0;"/><line style="stroke:#A80036;stroke-width:1.5;" x1="751.75" x2="751.75" y1="636.2422" y2="656.2422"/><polygon fill="#A80036" points="747.75,646.2422,751.75,656.2422,755.75,646.2422,751.75,650.2422" style="stroke:#A80036;stroke-width:1.0;"/><line style="stroke:#A80036;stroke-width:1.5;" x1="798" x2="751.75" y1="580.2734" y2="580.2734"/><line style="stroke:#A80036;stroke-width:1.5;" x1="751.75" x2="751.75" y1="580.2734" y2="602.2734"/><polygon fill="#A80036" points="747.75,592.2734,751.75,602.2734,755.75,592.2734,751.75,596.2734" style="stroke:#A80036;stroke-width:1.0;"/><line style="stroke:#A80036;stroke-width:1.5;" x1="934" x2="980.25" y1="580.2734" y2="580.2734"/><line style="stroke:#A80036;stroke-width:1.5;" x1="980.25" x2="980.25" y1="580.2734" y2="602.2734"/><polygon fill="#A80036" points="976.25,592.2734,980.25,602.2734,984.25,592.2734,980.25,596.2734" style="stroke:#A80036;stroke-width:1.0;"/><line style="stroke:#A80036;stroke-width:1.5;" x1="980.25" x2="980.25" y1="636.2422" y2="683.2422"/><line style="stroke:#A80036;stroke-width:1.5;" x1="980.25" x2="866" y1="683.2422" y2="683.2422"/><line style="stroke:#A80036;stroke-width:1.5;" x1="866" x2="866" y1="683.2422" y2="713.375"/><polygon fill="#A80036" points="862,703.375,866,713.375,870,703.375,866,707.375" style="stroke:#A80036;stroke-width:1.0;"/><line style="stroke:#A80036;stroke-width:1.5;" x1="866" x2="866" y1="795.7461" y2="815.7461"/><polygon fill="#A80036" points="862,805.7461,866,815.7461,870,805.7461,866,809.7461" style="stroke:#A80036;stroke-width:1.0;"/><line style="stroke:#A80036;stroke-width:1.5;" x1="866" x2="866" y1="849.7148" y2="869.7148"/><polygon fill="#A80036" points="862,859.7148,866,869.7148,870,859.7148,866,863.7148" style="stroke:#A80036;stroke-width:1.0;"/><line style="stroke:#A80036;stroke-width:1.5;" x1="866" x2="866" y1="737.375" y2="761.7773"/><polygon fill="#A80036" points="862,751.7773,866,761.7773,870,751.7773,866,755.7773" style="stroke:#A80036;stroke-width:1.0;"/><line style="stroke:#A80036;stroke-width:1.5;" x1="946.5" x2="1032.5" y1="725.375" y2="725.375"/><polygon fill="#A80036" points="1028.5,822.7305,1032.5,832.7305,1036.5,822.7305,1032.5,826.7305" style="stroke:#A80036;stroke-width:1.5;"/><line style="stroke:#A80036;stroke-width:1.5;" x1="1032.5" x2="1032.5" y1="725.375" y2="935.6836"/><line style="stroke:#A80036;stroke-width:1.5;" x1="1032.5" x2="878" y1="935.6836" y2="935.6836"/><polygon fill="#A80036" points="888,931.6836,878,935.6836,888,939.6836,884,935.6836" style="stroke:#A80036;stroke-width:1.0;"/><line style="stroke:#A80036;stroke-width:1.5;" x1="866" x2="866" y1="903.6836" y2="923.6836"/><polygon fill="#A80036" points="862,913.6836,866,923.6836,870,913.6836,866,917.6836" style="stroke:#A80036;stroke-width:1.0;"/><line style="stroke:#A80036;stroke-width:1.5;" x1="866" x2="866" y1="1065.1875" y2="1085.1875"/><polygon fill="#A80036" points="862,1075.1875,866,1085.1875,870,1075.1875,866,1079.1875" style="stroke:#A80036;stroke-width:1.0;"/><line style="stroke:#A80036;stroke-width:1.5;" x1="866" x2="866" y1="1119.1563" y2="1139.1563"/><polygon fill="#A80036" points="862,1129.1563,866,1139.1563,870,1129.1563,866,1133.1563" style="stroke:#A80036;stroke-width:1.0;"/><line style="stroke:#A80036;stroke-width:1.5;" x1="866" x2="866" y1="1275.4961" y2="1304.0117"/><polygon fill="#A80036" points="862,1294.0117,866,1304.0117,870,1294.0117,866,1298.0117" style="stroke:#A80036;stroke-width:1.0;"/><line style="stroke:#A80036;stroke-width:1.5;" x1="866" x2="866" y1="1217.125" y2="1241.5273"/><polygon fill="#A80036" points="862,1231.5273,866,1241.5273,870,1231.5273,866,1235.5273" style="stroke:#A80036;stroke-width:1.0;"/><line style="stroke:#A80036;stroke-width:1.5;" x1="1015.5" x2="1135" y1="1205.125" y2="1205.125"/><polygon fill="#A80036" points="1131,1274.0117,1135,1284.0117,1139,1274.0117,1135,1278.0117" style="stroke:#A80036;stroke-width:1.5;"/><line style="stroke:#A80036;stroke-width:1.5;" x1="1135" x2="1135" y1="1205.125" y2="1356.4141"/><line style="stroke:#A80036;stroke-width:1.5;" x1="1135" x2="866" y1="1356.4141" y2="1356.4141"/><line style="stroke:#A80036;stroke-width:1.5;" x1="866" x2="866" y1="1356.4141" y2="1391.5469"/><polygon fill="#A80036" points="862,1381.5469,866,1391.5469,870,1381.5469,866,1385.5469" style="stroke:#A80036;stroke-width:1.0;"/><line style="stroke:#A80036;stroke-width:1.5;" x1="866" x2="866" y1="1173.125" y2="1193.125"/><polygon fill="#A80036" points="862,1183.125,866,1193.125,870,1183.125,866,1187.125" style="stroke:#A80036;stroke-width:1.0;"/><line style="stroke:#A80036;stroke-width:1.5;" x1="866" x2="866" y1="1473.918" y2="1502.4336"/><polygon fill="#A80036" points="862,1492.4336,866,1502.4336,870,1492.4336,866,1496.4336" style="stroke:#A80036;stroke-width:1.0;"/><line style="stroke:#A80036;stroke-width:1.5;" x1="866" x2="866" y1="1415.5469" y2="1439.9492"/><polygon fill="#A80036" points="862,1429.9492,866,1439.9492,870,1429.9492,866,1433.9492" style="stroke:#A80036;stroke-width:1.0;"/><line style="stroke:#A80036;stroke-width:1.5;" x1="953" x2="1095" y1="1403.5469" y2="1403.5469"/><polygon fill="#A80036" points="1091,1472.4336,1095,1482.4336,1099,1472.4336,1095,1476.4336" style="stroke:#A80036;stroke-width:1.5;"/><line style="stroke:#A80036;stroke-width:1.5;" x1="1095" x2="1095" y1="1403.5469" y2="1546.4336"/><line style="stroke:#A80036;stroke-width:1.5;" x1="1095" x2="866" y1="1546.4336" y2="1546.4336"/><line style="stroke:#A80036;stroke-width:1.5;" x1="866" x2="866" y1="1546.4336" y2="1566.4336"/><polygon fill="#A80036" points="862,1556.4336,866,1566.4336,870,1556.4336,866,1560.4336" style="stroke:#A80036;stroke-width:1.0;"/><line style="stroke:#A80036;stroke-width:1.5;" x1="866" x2="866" y1="1006.8164" y2="1031.2188"/><polygon fill="#A80036" points="862,1021.2188,866,1031.2188,870,1021.2188,866,1025.2188" style="stroke:#A80036;stroke-width:1.0;"/><line style="stroke:#A80036;stroke-width:1.5;" x1="965" x2="1153" y1="994.8164" y2="994.8164"/><polygon fill="#A80036" points="1149,1307.5117,1153,1317.5117,1157,1307.5117,1153,1311.5117" style="stroke:#A80036;stroke-width:1.5;"/><line style="stroke:#A80036;stroke-width:1.5;" x1="1153" x2="1153" y1="994.8164" y2="1632.4023"/><line style="stroke:#A80036;stroke-width:1.5;" x1="1153" x2="878" y1="1632.4023" y2="1632.4023"/><polygon fill="#A80036" points="888,1628.4023,878,1632.4023,888,1636.4023,884,1632.4023" style="stroke:#A80036;stroke-width:1.0;"/><line style="stroke:#A80036;stroke-width:1.5;" x1="866" x2="866" y1="1600.4023" y2="1620.4023"/><polygon fill="#A80036" points="862,1610.4023,866,1620.4023,870,1610.4023,866,1614.4023" style="stroke:#A80036;stroke-width:1.0;"/><line style="stroke:#A80036;stroke-width:1.5;" x1="866" x2="866" y1="947.6836" y2="982.8164"/><polygon fill="#A80036" points="862,972.8164,866,982.8164,870,972.8164,866,976.8164" style="stroke:#A80036;stroke-width:1.0;"/><line style="stroke:#A80036;stroke-width:1.5;" x1="866" x2="866" y1="1761.9063" y2="1781.9063"/><polygon fill="#A80036" points="862,1771.9063,866,1781.9063,870,1771.9063,866,1775.9063" style="stroke:#A80036;stroke-width:1.0;"/><line style="stroke:#A80036;stroke-width:1.5;" x1="866" x2="866" y1="1815.875" y2="1844.3906"/><polygon fill="#A80036" points="862,1834.3906,866,1844.3906,870,1834.3906,866,1838.3906" style="stroke:#A80036;stroke-width:1.0;"/><line style="stroke:#A80036;stroke-width:1.5;" x1="866" x2="866" y1="1878.3594" y2="1898.3594"/><polygon fill="#A80036" points="862,1888.3594,866,1898.3594,870,1888.3594,866,1892.3594" style="stroke:#A80036;stroke-width:1.0;"/><line style="stroke:#A80036;stroke-width:1.5;" x1="866" x2="866" y1="1703.5352" y2="1727.9375"/><polygon fill="#A80036" points="862,1717.9375,866,1727.9375,870,1717.9375,866,1721.9375" style="stroke:#A80036;stroke-width:1.0;"/><line style="stroke:#A80036;stroke-width:1.5;" x1="1016" x2="1055.5" y1="1691.5352" y2="1691.5352"/><polygon fill="#A80036" points="1051.5,1814.3906,1055.5,1824.3906,1059.5,1814.3906,1055.5,1818.3906" style="stroke:#A80036;stroke-width:1.5;"/><line style="stroke:#A80036;stroke-width:1.5;" x1="1055.5" x2="1055.5" y1="1691.5352" y2="1942.3594"/><line style="stroke:#A80036;stroke-width:1.5;" x1="1055.5" x2="866" y1="1942.3594" y2="1942.3594"/><line style="stroke:#A80036;stroke-width:1.5;" x1="866" x2="866" y1="1942.3594" y2="1962.3594"/><polygon fill="#A80036" points="862,1952.3594,866,1962.3594,870,1952.3594,866,1956.3594" style="stroke:#A80036;stroke-width:1.0;"/><line style="stroke:#A80036;stroke-width:1.5;" x1="866" x2="866" y1="1644.4023" y2="1679.5352"/><polygon fill="#A80036" points="862,1669.5352,866,1679.5352,870,1669.5352,866,1673.5352" style="stroke:#A80036;stroke-width:1.0;"/><line style="stroke:#A80036;stroke-width:1.5;" x1="866" x2="866" y1="2044.7305" y2="2073.2461"/><polygon fill="#A80036" points="862,2063.2461,866,2073.2461,870,2063.2461,866,2067.2461" style="stroke:#A80036;stroke-width:1.0;"/><line style="stroke:#A80036;stroke-width:1.5;" x1="866" x2="866" y1="1986.3594" y2="2010.7617"/><polygon fill="#A80036" points="862,2000.7617,866,2010.7617,870,2000.7617,866,2004.7617" style="stroke:#A80036;stroke-width:1.0;"/><line style="stroke:#A80036;stroke-width:1.5;" x1="1056.5" x2="1068.5" y1="1974.3594" y2="1974.3594"/><polygon fill="#A80036" points="1064.5,2043.2461,1068.5,2053.2461,1072.5,2043.2461,1068.5,2047.2461" style="stroke:#A80036;stroke-width:1.5;"/><line style="stroke:#A80036;stroke-width:1.5;" x1="1068.5" x2="1068.5" y1="1974.3594" y2="2117.2461"/><line style="stroke:#A80036;stroke-width:1.5;" x1="1068.5" x2="866" y1="2117.2461" y2="2117.2461"/><line style="stroke:#A80036;stroke-width:1.5;" x1="866" x2="866" y1="2117.2461" y2="2137.2461"/><polygon fill="#A80036" points="862,2127.2461,866,2137.2461,870,2127.2461,866,2131.2461" style="stroke:#A80036;stroke-width:1.0;"/><line style="stroke:#A80036;stroke-width:1.5;" x1="866" x2="866" y1="533.1406" y2="568.2734"/><polygon fill="#A80036" points="862,558.2734,866,568.2734,870,558.2734,866,562.2734" style="stroke:#A80036;stroke-width:1.0;"/><line style="stroke:#A80036;stroke-width:1.5;" x1="921" x2="1171" y1="2149.2461" y2="2149.2461"/><polygon fill="#A80036" points="1167,1341.2813,1171,1331.2813,1175,1341.2813,1171,1337.2813" style="stroke:#A80036;stroke-width:1.5;"/><line style="stroke:#A80036;stroke-width:1.5;" x1="1171" x2="1171" y1="521.1406" y2="2149.2461"/><line style="stroke:#A80036;stroke-width:1.5;" x1="1171" x2="878" y1="521.1406" y2="521.1406"/><polygon fill="#A80036" points="888,517.1406,878,521.1406,888,525.1406,884,521.1406" style="stroke:#A80036;stroke-width:1.0;"/><line style="stroke:#A80036;stroke-width:1.5;" x1="866" x2="866" y1="2161.2461" y2="2181.2461"/><polygon fill="#A80036" points="862,2171.2461,866,2181.2461,870,2171.2461,866,2175.2461" style="stroke:#A80036;stroke-width:1.0;"/><!--SRC=[pLNBRjim4BppApOv13QG6ZqxTGhdSIYGD47hjiU2aLOsKOeKoFNhxxjBAOWiIsbGzD2Zf5boPdPs5NyP1y57L8eCMOHhNvO-DsGmtk46xIBe7CFFxCeJl8DvHcPZQ0ytHY-3BfMAf0EfwNTjJQu9mRXgJV52cG96688F4MOpU3y6Mg63qHxZM05C7uDn1ATDcV4EuZhBCCPYRUtfXK8R4KRE3u3JBL1ffe240UgRk0uWagyKkjmKIarP3GCHI5H05No5GQHTAEVvjSM2fl0CUWo-CBJGOObq3azO-82tZiAUxy_m7EQbNpjIBR5PNPdtdFzVw5S1AzIKoFpG4Np81RohJC3yum2dXIaHVD5eQi3i1mTWQwnD5qnQL_KmVKZtc0WReSpOXb3Bz5ivDucv4ITFPk1OEPoTWJmBXybdluNB3f0rFOi9gBELUCvD0qfT6vAK6jWKjBkStjTQfb-Hc6um-ecdu8j0sqWWpuQiyGrGuSvJKLPImnhQpJoouUJu9hQ0vHsz7raTwKg7STU1EgY0abIsWnMznOPkl0TTkEe0_-145txWXXCt08J_jSpIGuKkBPWu6iFb3ExrRcwjtsB-ygMZfHKon-7CLjejKQB6e-UWr3lGzGbrVkDv4_fSRkUHiPeb-9VIMdUJPO1sckjcrNJJKEHezPuR5sFDoPhIq22_Uny92cuQb7w39VT7BB2oLFy1gLQ6NlTzydNzn5PaD1fEwdYoyAJjlN6ypI9yW4TXbFo_4SsVNFCfXIcnlHFjZOmMyrV3tflra_wKjQQW-srm4Wvs0UX2DkFVJKVVIIj-CJ0rpGdNscLeeHBXRjcOmnHnPo8rq1gJt4jRicUFzllscaDjJ-T2zisM7Ti3skLrAWzbHD3oyn-sxm2-rGsUTtRlpw8MMV-VOBiol3z6to9NCllIE2uRAodv3G00]--></g></svg>