<?xml version="1.0" encoding="windows-1252" standalone="no"?>
<svg xmlns="http://www.w3.org/2000/svg" xmlns:xlink="http://www.w3.org/1999/xlink" contentStyleType="text/css" height="388px" preserveAspectRatio="none" style="width:618px;height:388px;background:#FFFFFF;" version="1.1" viewBox="0 0 618 388" width="618px" zoomAndPan="magnify"><defs><filter height="300%" id="f28pfanbu7yh7" width="300%" x="-1" y="-1"><feGaussianBlur result="blurOut" stdDeviation="2.0"/><feColorMatrix in="blurOut" result="blurOut2" type="matrix" values="0 0 0 0 0 0 0 0 0 0 0 0 0 0 0 0 0 0 .4 0"/><feOffset dx="4.0" dy="4.0" in="blurOut2" result="blurOut3"/><feBlend in="SourceGraphic" in2="blurOut3" mode="normal"/></filter></defs><g><text fill="#000000" font-family="sans-serif" font-size="14" font-weight="bold" lengthAdjust="spacing" textLength="265" x="172.875" y="32.9951">StopOut_cBot - Activity diagram</text><text fill="#000000" font-family="sans-serif" font-size="14" font-weight="bold" lengthAdjust="spacing" textLength="5" x="305.375" y="49.292"> </text><path d="M79.5,63.5938 L79.5,88.7266 A0,0 0 0 0 79.5,88.7266 L324.5,88.7266 A0,0 0 0 0 324.5,88.7266 L324.5,81.5938 L344.5,76.1602 L324.5,73.5938 L324.5,73.5938 L314.5,63.5938 L79.5,63.5938 A0,0 0 0 0 79.5,63.5938 " fill="#FBFB77" filter="url(#f28pfanbu7yh7)" style="stroke:#A80036;stroke-width:1.0;"/><path d="M314.5,63.5938 L314.5,73.5938 L324.5,73.5938 L314.5,63.5938 " fill="#FBFB77" style="stroke:#A80036;stroke-width:1.0;"/><text fill="#000000" font-family="sans-serif" font-size="13" lengthAdjust="spacing" textLength="224" x="85.5" y="80.6606">Run every minute (on bar method)</text><ellipse cx="354.5" cy="76.1602" fill="#000000" filter="url(#f28pfanbu7yh7)" rx="10" ry="10" style="stroke:#000000;stroke-width:1.0;"/><path d="M10,98.7266 L10,123.8594 L248,123.8594 L248,108.7266 L238,98.7266 L10,98.7266 " fill="#FBFB77" filter="url(#f28pfanbu7yh7)" style="stroke:#A80036;stroke-width:1.0;"/><path d="M238,98.7266 L238,108.7266 L248,108.7266 L238,98.7266 " fill="#FBFB77" style="stroke:#A80036;stroke-width:1.0;"/><text fill="#000000" font-family="sans-serif" font-size="13" lengthAdjust="spacing" textLength="217" x="16" y="115.7935">Check sufficient equity for trading</text><polygon fill="#FEFECE" filter="url(#f28pfanbu7yh7)" points="260,123.8594,449,123.8594,461,135.8594,449,147.8594,260,147.8594,248,135.8594,260,123.8594" style="stroke:#A80036;stroke-width:1.5;"/><text fill="#000000" font-family="sans-serif" font-size="11" lengthAdjust="spacing" textLength="181" x="264" y="139.6675">Account.Equity &gt; EquityStopOut</text><text fill="#000000" font-family="sans-serif" font-size="11" lengthAdjust="spacing" textLength="21" x="227" y="133.2651">yes</text><text fill="#000000" font-family="sans-serif" font-size="11" lengthAdjust="spacing" textLength="14" x="461" y="133.2651">no</text><rect fill="#FEFECE" filter="url(#f28pfanbu7yh7)" height="33.9688" rx="12.5" ry="12.5" style="stroke:#A80036;stroke-width:1.5;" width="229" x="112.75" y="157.8594"/><text fill="#000000" font-family="sans-serif" font-size="12" lengthAdjust="spacing" textLength="205" x="122.75" y="178.998">Print "Sufficient equity for trading."</text><rect fill="#FEFECE" filter="url(#f28pfanbu7yh7)" height="33.9688" rx="12.5" ry="12.5" style="stroke:#A80036;stroke-width:1.5;" width="240" x="361.75" y="157.8594"/><text fill="#000000" font-family="sans-serif" font-size="12" lengthAdjust="spacing" textLength="220" x="371.75" y="178.998">Print "Unsufficient equity for trading."</text><rect fill="#FEFECE" filter="url(#f28pfanbu7yh7)" height="33.9688" rx="12.5" ry="12.5" style="stroke:#A80036;stroke-width:1.5;" width="130" x="416.75" y="211.8281"/><text fill="#000000" font-family="sans-serif" font-size="12" lengthAdjust="spacing" textLength="110" x="426.75" y="232.9668">Close all positions</text><rect fill="#FEFECE" filter="url(#f28pfanbu7yh7)" height="33.9688" rx="12.5" ry="12.5" style="stroke:#A80036;stroke-width:1.5;" width="175" x="394.25" y="265.7969"/><text fill="#000000" font-family="sans-serif" font-size="12" lengthAdjust="spacing" textLength="155" x="404.25" y="286.9355">Cancel all pending orders</text><polygon fill="#FEFECE" filter="url(#f28pfanbu7yh7)" points="354.5,305.7656,366.5,317.7656,354.5,329.7656,342.5,317.7656,354.5,305.7656" style="stroke:#A80036;stroke-width:1.5;"/><ellipse cx="354.5" cy="360.7656" fill="#FFFFFF" filter="url(#f28pfanbu7yh7)" rx="11" ry="11" style="stroke:#000000;stroke-width:1.0;"/><ellipse cx="354.5" cy="360.7656" fill="#000000" rx="6" ry="6" style="stroke:#7F7F7F;stroke-width:1.0;"/><line style="stroke:#A80036;stroke-width:1.5;" x1="481.75" x2="481.75" y1="191.8281" y2="211.8281"/><polygon fill="#A80036" points="477.75,201.8281,481.75,211.8281,485.75,201.8281,481.75,205.8281" style="stroke:#A80036;stroke-width:1.0;"/><line style="stroke:#A80036;stroke-width:1.5;" x1="481.75" x2="481.75" y1="245.7969" y2="265.7969"/><polygon fill="#A80036" points="477.75,255.7969,481.75,265.7969,485.75,255.7969,481.75,259.7969" style="stroke:#A80036;stroke-width:1.0;"/><line style="stroke:#A80036;stroke-width:1.5;" x1="248" x2="227.25" y1="135.8594" y2="135.8594"/><line style="stroke:#A80036;stroke-width:1.5;" x1="227.25" x2="227.25" y1="135.8594" y2="157.8594"/><polygon fill="#A80036" points="223.25,147.8594,227.25,157.8594,231.25,147.8594,227.25,151.8594" style="stroke:#A80036;stroke-width:1.0;"/><line style="stroke:#A80036;stroke-width:1.5;" x1="461" x2="481.75" y1="135.8594" y2="135.8594"/><line style="stroke:#A80036;stroke-width:1.5;" x1="481.75" x2="481.75" y1="135.8594" y2="157.8594"/><polygon fill="#A80036" points="477.75,147.8594,481.75,157.8594,485.75,147.8594,481.75,151.8594" style="stroke:#A80036;stroke-width:1.0;"/><line style="stroke:#A80036;stroke-width:1.5;" x1="227.25" x2="227.25" y1="191.8281" y2="317.7656"/><line style="stroke:#A80036;stroke-width:1.5;" x1="227.25" x2="342.5" y1="317.7656" y2="317.7656"/><polygon fill="#A80036" points="332.5,313.7656,342.5,317.7656,332.5,321.7656,336.5,317.7656" style="stroke:#A80036;stroke-width:1.0;"/><line style="stroke:#A80036;stroke-width:1.5;" x1="481.75" x2="481.75" y1="299.7656" y2="317.7656"/><line style="stroke:#A80036;stroke-width:1.5;" x1="481.75" x2="366.5" y1="317.7656" y2="317.7656"/><polygon fill="#A80036" points="376.5,313.7656,366.5,317.7656,376.5,321.7656,372.5,317.7656" style="stroke:#A80036;stroke-width:1.0;"/><line style="stroke:#A80036;stroke-width:1.5;" x1="354.5" x2="354.5" y1="86.1602" y2="123.8594"/><polygon fill="#A80036" points="350.5,113.8594,354.5,123.8594,358.5,113.8594,354.5,117.8594" style="stroke:#A80036;stroke-width:1.0;"/><line style="stroke:#A80036;stroke-width:1.5;" x1="354.5" x2="354.5" y1="329.7656" y2="349.7656"/><polygon fill="#A80036" points="350.5,339.7656,354.5,349.7656,358.5,339.7656,354.5,343.7656" style="stroke:#A80036;stroke-width:1.0;"/><!--SRC=[VP2nQWCn44HxVSNWwgw8Fo26G69InyIa2mH5j_8jrkqwqifmVnyTbyAaiAgLHc-6dN9cGTP2pXbR8XnDBs_LliAB6Xxm78olR3C6zgVi9toASyLyDYTgX4JH7DfvhmAwKfuniTIcT2huzXaJsQX3xqW6B8Xp7D4ruw1LRFlwKnVx9wp3Npnws4Y2RgRID__7GsOnR8urHWvCRQOLZ9fXsGyif-q6EqUfj6pHM-f3odrkjtpUfrO3V4guQ65ZbRA-UmcKLg4jqG1e7YWtTRb6v_vLiHyfd74tygQDqZR-1G00]--></g></svg>